<?xml version="1.0" encoding="UTF-8"?>
<svg xmlns="http://www.w3.org/2000/svg" xmlns:xlink="http://www.w3.org/1999/xlink" width="0" height="0">
<defs>
<symbol viewBox="0 0 15 15" id="sun"><path fill="currentColor" d="M7.5 12a.5.5 0 0 1 .5.5v2a.5.5 0 0 1-1 0v-2a.5.5 0 0 1 .5-.5m-3.889-1.318a.5.5 0 0 1 .707.707l-1.415 1.415a.5.5 0 0 1-.707-.707zm7.07 0a.5.5 0 0 1 .708 0l1.415 1.415a.5.5 0 0 1-.707.707l-1.415-1.415a.5.5 0 0 1 0-.707M7.5 4.5a3 3 0 1 1 0 6a3 3 0 0 1 0-6m0 1a2 2 0 1 0 0 4a2 2 0 0 0 0-4M2.5 7a.5.5 0 0 1 0 1h-2a.5.5 0 0 1 0-1zm12 0a.5.5 0 0 1 0 1h-2a.5.5 0 0 1 0-1zM2.196 2.196a.5.5 0 0 1 .707 0l1.415 1.415a.5.5 0 0 1-.707.707L2.196 2.903a.5.5 0 0 1 0-.707m9.9 0a.5.5 0 0 1 .708.707l-1.415 1.415a.5.5 0 0 1-.707-.707zM7.5 0a.5.5 0 0 1 .5.5v2a.5.5 0 0 1-1 0v-2a.5.5 0 0 1 .5-.5"></path></symbol>
<symbol viewBox="0 0 15 15" id="moon"><path fill="currentColor" d="m8.544.982l.292.053l.265.06l.324.09l.253.082l.276.104l.24.101l.113.052l.327.165l.322.185l.292.19l.245.178l.32.26l.223.2l.16.158l.12.124l.163.18l.2.24l.152.2q.307.419.545.883l.075.148l.077.166l.113.268a6.5 6.5 0 0 1 .385 1.415l.036.277q.04.365.04.74a6.6 6.6 0 0 1-6.982 6.588l-.268-.02l-.316-.04a6.6 6.6 0 0 1-1.104-.26l-.243-.086l-.304-.122l-.26-.12l-.263-.135a7 7 0 0 1-.371-.217l-.176-.115l-.187-.13l-.12-.09l-.19-.15l-.259-.225l-.072-.066a7 7 0 0 1-.21-.206c-.15-.154-.03-.405.183-.416q.376-.021.739-.081a6.603 6.603 0 0 0 4.33-10.268c-.122-.176.004-.424.217-.4zm1.288 1.424A7.6 7.6 0 0 1 10.35 6.2l.128.006a1.25 1.25 0 1 1-.786 2.305q-.085.181-.179.358a.75.75 0 1 1-.77 1.17a7.6 7.6 0 0 1-3.66 2.513A5.6 5.6 0 1 0 9.832 2.405M1.5 6.1a.4.4 0 0 1 .4.4v.6h.6l.081.009a.4.4 0 0 1 0 .783l-.08.009h-.6v.6a.401.401 0 0 1-.801 0v-.6H.5a.401.401 0 0 1 0-.801h.6v-.6c0-.22.18-.4.4-.4m4-3a.4.4 0 0 1 .4.4v.6h.6l.081.009a.4.4 0 0 1 0 .783l-.08.009h-.6v.6a.401.401 0 0 1-.801 0v-.6h-.6a.401.401 0 0 1 0-.801h.6v-.6c0-.22.18-.4.4-.4m-3-3a.4.4 0 0 1 .4.4v.6h.6l.081.009a.4.4 0 0 1 0 .783l-.08.009h-.6v.6a.401.401 0 0 1-.801 0v-.6h-.6a.401.401 0 0 1 0-.801h.6V.5c0-.22.18-.4.4-.4"></path></symbol>
<symbol viewBox="0 0 15 15" id="laptop"><path fill="currentColor" d="M12.75 3c.69 0 1.25.56 1.25 1.25V12h1v.5a.5.5 0 0 1-.5.5H.5a.5.5 0 0 1-.5-.5V12h1V4.25C1 3.56 1.56 3 2.25 3zM2.25 4a.25.25 0 0 0-.25.25v7.25h11V4.25a.25.25 0 0 0-.25-.25z"></path></symbol>
<symbol viewBox="0 0 15 15" id="chevron-right"><path fill="currentColor" d="M6.159 11.865a.5.5 0 0 0 .707-.023l3.75-4a.5.5 0 0 0 0-.684l-3.75-4l-.077-.066a.5.5 0 0 0-.715.67l.061.08L9.565 7.5l-3.43 3.658a.5.5 0 0 0 .024.707"></path></symbol>
</defs>
</svg>